<svg t="1717321721524" class="icon" viewBox="0 0 1024 1024" version="1.1"
  xmlns="http://www.w3.org/2000/svg" p-id="3762" width="20" height="20">
  <path
    d="M139.2 856c-25.6-4.4-61.6-15.2-84-24.8l-19.2-8v-170l9.6-4.8c8-4.4 13.2-4 34 3.2 52 18 101.6 18.4 130 0.8 14.8-9.6 20.8-18.8 24.4-37.6 4-19.6-3.6-38.8-21.2-55.6-32-30.8-79.6-44-131.6-36-51.6 8-50.8 22-8-186l36.8-177.2h160c119.6 0 161.6 1.2 165.2 4.8s4.8 31.6 4.8 101.2c0 88.8-0.8 97.2-7.2 103.2s-18.4 6.8-84 6.8c-88 0-94.8 3.2-47.6 20.8 79.2 30 136 95.2 152.4 176 17.6 84.8-2 152.4-61.6 211.2-51.6 51.6-102.4 72-184 74.4-27.6 0.4-58.4-0.4-68.8-2.4zM752 504V172h184v664h-184v-332z"
    fill="hsl(250deg 69% 61%)" p-id="3763"></path>
</svg>